<?xml version="1.0" standalone="no"?>
<!DOCTYPE svg PUBLIC "-//W3C//DTD SVG 20010904//EN"
 "http://www.w3.org/TR/2001/REC-SVG-20010904/DTD/svg10.dtd">
<svg version="1.0" xmlns="http://www.w3.org/2000/svg"
 width="512.000000pt" height="328.000000pt" viewBox="0 0 512.000000 328.000000"
 preserveAspectRatio="xMidYMid meet">

<g transform="translate(0.000000,328.000000) scale(0.100000,-0.100000)"
fill="#000000" stroke="none">
<path d="M1350 2816 c0 -15 -8 -30 -20 -36 -11 -6 -17 -16 -14 -22 4 -6 -1
-17 -11 -25 -11 -7 -15 -13 -9 -13 5 0 -2 -9 -16 -19 -20 -16 -22 -21 -11 -35
9 -11 11 -25 5 -43 -4 -16 -9 -44 -10 -63 -1 -19 -5 -47 -9 -62 -6 -24 -4 -28
14 -28 27 0 35 -19 21 -54 -7 -21 -6 -32 5 -49 14 -21 12 -27 -19 -75 -38 -57
-38 -83 0 -101 29 -13 30 -26 4 -91 -11 -27 -15 -50 -10 -50 16 0 0 -163 -18
-183 -15 -17 -15 -19 0 -28 26 -15 34 -76 14 -109 -11 -20 -13 -29 -5 -32 9
-3 7 -12 -5 -29 -9 -14 -14 -28 -11 -30 2 -3 6 -22 9 -43 3 -28 -2 -49 -20
-81 -29 -54 -30 -55 -1 -52 19 2 22 -2 19 -28 -2 -18 3 -34 12 -41 11 -7 17
-34 20 -83 5 -68 3 -75 -30 -131 -30 -49 -34 -62 -24 -79 6 -12 16 -21 22 -21
7 0 9 -14 5 -39 -2 -22 0 -44 5 -49 6 -6 11 -43 12 -84 0 -40 4 -75 7 -78 4
-3 3 -41 -1 -85 -5 -61 -4 -84 7 -96 7 -8 13 -26 13 -38 0 -13 11 -32 25 -43
14 -11 25 -30 25 -43 0 -23 2 -23 58 -18 31 3 68 13 82 21 14 9 28 17 32 17 3
0 10 3 14 8 13 12 35 8 66 -14 25 -18 35 -20 67 -11 21 5 54 7 72 5 60 -7 157
1 171 15 5 5 10 28 11 50 1 41 11 54 20 30 3 -9 7 -7 12 5 11 27 1 30 -34 12
-17 -9 -31 -11 -31 -5 0 5 -6 10 -14 10 -20 0 -26 12 -32 62 -10 86 -57 201
-101 246 -7 7 -16 25 -19 40 -4 15 -10 32 -14 37 -10 13 -40 162 -60 300 -12
83 -14 244 -5 345 7 85 2 153 -30 355 -18 116 -19 151 -7 220 6 28 8 53 5 58
-2 4 1 7 7 7 7 0 9 8 5 19 -3 11 1 36 10 57 9 21 22 81 31 133 l15 95 -30 42
c-24 35 -29 50 -24 79 3 19 10 35 14 35 5 0 9 8 8 18 0 10 -3 12 -6 5 -6 -16
-75 -17 -89 -3 -14 14 -49 22 -114 25 -30 2 -63 6 -72 10 -14 6 -18 2 -18 -19z"/>
<path d="M3205 2812 c-16 -10 -32 -21 -34 -26 -2 -4 -16 -20 -32 -35 -17 -17
-25 -32 -20 -40 12 -19 0 -114 -16 -133 -13 -15 -12 -17 8 -20 31 -4 43 -52
24 -92 -8 -16 -15 -37 -15 -47 0 -13 -9 -19 -32 -21 -20 -2 -32 -8 -30 -15 3
-17 3 -17 -53 8 -48 21 -56 20 -68 -16 -2 -5 -34 2 -73 17 -54 21 -79 26 -117
21 -34 -4 -45 -9 -38 -16 16 -16 13 -25 -9 -32 -16 -5 -20 -15 -20 -50 0 -24
-5 -47 -11 -50 -11 -8 -10 -213 1 -230 4 -5 10 -29 13 -52 5 -44 19 -64 50
-76 11 -4 21 -16 24 -27 3 -13 12 -19 22 -16 184 49 203 70 197 218 -4 119 4
134 82 142 61 7 220 -21 247 -44 21 -17 94 -6 115 17 20 21 50 95 50 123 0 11
4 28 9 38 25 50 41 96 41 120 0 15 4 34 10 42 6 9 5 19 -3 29 -7 8 -11 16 -9
18 1 1 2 12 2 23 0 16 -5 19 -23 15 -26 -7 -45 10 -52 45 -2 12 -7 30 -10 40
-3 10 0 24 7 32 7 7 21 23 31 34 17 21 17 21 -8 17 -14 -3 -25 -10 -25 -15 0
-16 -58 -3 -77 18 -49 54 -103 66 -158 36z"/>
<path d="M3148 1525 c-2 -1 -30 -5 -63 -9 -73 -7 -135 -16 -155 -23 -24 -7 12
-23 40 -18 21 4 22 2 17 -35 -3 -22 -1 -40 4 -40 5 0 9 -7 9 -15 0 -19 14 -19
29 -1 13 15 64 28 83 21 9 -4 13 -34 14 -100 1 -95 1 -95 -23 -95 l-25 0 22
-18 c19 -16 21 -22 11 -40 -7 -12 -9 -26 -6 -31 3 -5 -6 -23 -20 -39 -25 -30
-25 -31 -5 -37 11 -3 20 -15 20 -25 0 -10 5 -22 10 -25 14 -8 13 -52 -2 -61
-8 -5 -6 -11 6 -20 19 -13 12 -38 -18 -64 -21 -17 -20 -27 3 -35 12 -4 17 -12
14 -24 -3 -10 0 -22 6 -25 6 -4 11 -20 11 -37 0 -16 5 -29 10 -29 7 0 8 -13 5
-34 -11 -54 33 -120 99 -151 33 -16 40 -17 50 -4 6 8 24 21 39 30 27 15 30 15
58 -12 34 -32 125 -62 166 -55 15 3 58 6 96 8 51 2 66 6 62 16 -3 7 0 33 5 57
7 33 6 74 -6 156 -15 112 -22 130 -79 204 -17 22 -38 54 -48 72 -17 31 -67
191 -67 216 0 6 -6 23 -13 37 -7 14 -22 49 -33 79 -24 68 -98 151 -159 180
-36 17 -156 35 -167 26z m-108 -52 c0 -2 -9 -13 -20 -25 -19 -21 -26 -15 -15
15 5 12 35 21 35 10z"/>
<path d="M2170 1516 c-3 -2 -46 -7 -96 -10 -51 -3 -106 -12 -124 -20 l-33 -14
74 -7 c41 -4 104 -8 141 -10 37 -2 72 -6 77 -10 6 -3 11 -1 11 6 0 7 3 10 6 7
3 -4 -2 -20 -10 -36 -9 -17 -15 -41 -15 -54 0 -13 -8 -71 -19 -130 -14 -82
-16 -108 -7 -108 7 0 21 -12 31 -27 9 -16 25 -33 33 -40 15 -11 14 -15 -1 -43
-13 -23 -14 -32 -5 -34 6 -2 27 -8 46 -14 48 -16 117 2 158 41 26 24 40 30 70
27 96 -7 139 8 90 31 -20 9 -27 20 -27 41 0 15 -3 28 -7 28 -5 0 -9 23 -10 50
0 28 -5 56 -11 63 -5 7 -13 30 -17 52 -10 58 -60 160 -87 177 -23 15 -134 39
-142 30 -9 -8 -116 -7 -119 1 -1 5 -5 6 -7 3z"/>
<path d="M1972 765 c4 -4 4 -13 -2 -19 -5 -7 -5 -18 -1 -25 6 -9 10 -5 13 13
3 15 0 29 -6 33 -6 3 -8 3 -4 -2z"/>
<path d="M1936 697 c-3 -11 -3 -23 -1 -26 3 -2 5 1 5 8 0 8 7 10 20 6 25 -8
26 6 1 22 -16 10 -20 9 -25 -10z"/>
<path d="M3727 511 c3 -12 10 -21 15 -21 13 0 6 32 -9 37 -7 3 -9 -3 -6 -16z"/>
</g>
</svg>
